<mxfile host="app.diagrams.net" agent="Mozilla/5.0 (Windows NT 10.0; Win64; x64) AppleWebKit/537.36 (KHTML, like Gecko) Chrome/139.0.0.0 Safari/537.36 Edg/139.0.0.0" version="28.1.0">
  <diagram name="Page-1" id="XjVwhMPFh0BGGEM72AYU">
    <mxGraphModel dx="858" dy="1068" grid="1" gridSize="10" guides="1" tooltips="1" connect="1" arrows="1" fold="1" page="1" pageScale="1" pageWidth="850" pageHeight="1100" math="0" shadow="0">
      <root>
        <mxCell id="0" />
        <mxCell id="1" parent="0" />
        <mxCell id="UfAPCVfafdLjMKs81Pv9-14" style="edgeStyle=orthogonalEdgeStyle;rounded=0;orthogonalLoop=1;jettySize=auto;html=1;entryX=0.5;entryY=0;entryDx=0;entryDy=0;" edge="1" parent="1" source="UfAPCVfafdLjMKs81Pv9-1" target="UfAPCVfafdLjMKs81Pv9-2">
          <mxGeometry relative="1" as="geometry" />
        </mxCell>
        <mxCell id="UfAPCVfafdLjMKs81Pv9-1" value="Start" style="ellipse;whiteSpace=wrap;html=1;fillColor=#d5e8d4;strokeColor=#82b366;" vertex="1" parent="1">
          <mxGeometry x="312.5" y="50" width="95" height="60" as="geometry" />
        </mxCell>
        <mxCell id="UfAPCVfafdLjMKs81Pv9-13" style="edgeStyle=orthogonalEdgeStyle;rounded=0;orthogonalLoop=1;jettySize=auto;html=1;exitX=0.5;exitY=1;exitDx=0;exitDy=0;entryX=0.5;entryY=0;entryDx=0;entryDy=0;" edge="1" parent="1" source="UfAPCVfafdLjMKs81Pv9-2" target="UfAPCVfafdLjMKs81Pv9-3">
          <mxGeometry relative="1" as="geometry" />
        </mxCell>
        <mxCell id="UfAPCVfafdLjMKs81Pv9-2" value="Read Vehicle ID" style="shape=parallelogram;perimeter=parallelogramPerimeter;whiteSpace=wrap;html=1;fixedSize=1;fillColor=#fff2cc;strokeColor=#d6b656;" vertex="1" parent="1">
          <mxGeometry x="290" y="170" width="140" height="60" as="geometry" />
        </mxCell>
        <mxCell id="UfAPCVfafdLjMKs81Pv9-11" style="edgeStyle=orthogonalEdgeStyle;rounded=0;orthogonalLoop=1;jettySize=auto;html=1;exitX=0.5;exitY=1;exitDx=0;exitDy=0;entryX=0.5;entryY=0;entryDx=0;entryDy=0;" edge="1" parent="1" source="UfAPCVfafdLjMKs81Pv9-3" target="UfAPCVfafdLjMKs81Pv9-4">
          <mxGeometry relative="1" as="geometry" />
        </mxCell>
        <mxCell id="UfAPCVfafdLjMKs81Pv9-3" value="Read Parking Count and Registration" style="rounded=0;whiteSpace=wrap;html=1;fillColor=#dae8fc;strokeColor=#6c8ebf;" vertex="1" parent="1">
          <mxGeometry x="300" y="290" width="120" height="60" as="geometry" />
        </mxCell>
        <mxCell id="UfAPCVfafdLjMKs81Pv9-9" style="edgeStyle=orthogonalEdgeStyle;rounded=0;orthogonalLoop=1;jettySize=auto;html=1;exitX=1;exitY=0.5;exitDx=0;exitDy=0;entryX=0;entryY=0.5;entryDx=0;entryDy=0;" edge="1" parent="1" source="UfAPCVfafdLjMKs81Pv9-4" target="UfAPCVfafdLjMKs81Pv9-6">
          <mxGeometry relative="1" as="geometry" />
        </mxCell>
        <mxCell id="UfAPCVfafdLjMKs81Pv9-10" style="edgeStyle=orthogonalEdgeStyle;rounded=0;orthogonalLoop=1;jettySize=auto;html=1;exitX=0.5;exitY=1;exitDx=0;exitDy=0;entryX=0.5;entryY=0;entryDx=0;entryDy=0;" edge="1" parent="1" source="UfAPCVfafdLjMKs81Pv9-4" target="UfAPCVfafdLjMKs81Pv9-5">
          <mxGeometry relative="1" as="geometry" />
        </mxCell>
        <mxCell id="UfAPCVfafdLjMKs81Pv9-4" value="Verify Registration &amp;amp; Count" style="rhombus;whiteSpace=wrap;html=1;fillColor=#dae8fc;strokeColor=#6c8ebf;" vertex="1" parent="1">
          <mxGeometry x="290" y="380" width="140" height="80" as="geometry" />
        </mxCell>
        <mxCell id="UfAPCVfafdLjMKs81Pv9-17" style="edgeStyle=orthogonalEdgeStyle;rounded=0;orthogonalLoop=1;jettySize=auto;html=1;exitX=0;exitY=0.5;exitDx=0;exitDy=0;entryX=0.384;entryY=1.057;entryDx=0;entryDy=0;entryPerimeter=0;" edge="1" parent="1" source="UfAPCVfafdLjMKs81Pv9-5" target="UfAPCVfafdLjMKs81Pv9-15">
          <mxGeometry relative="1" as="geometry">
            <mxPoint x="90" y="570.3333333333333" as="targetPoint" />
          </mxGeometry>
        </mxCell>
        <mxCell id="UfAPCVfafdLjMKs81Pv9-21" style="edgeStyle=orthogonalEdgeStyle;rounded=0;orthogonalLoop=1;jettySize=auto;html=1;exitX=0.5;exitY=1;exitDx=0;exitDy=0;" edge="1" parent="1" source="UfAPCVfafdLjMKs81Pv9-5" target="UfAPCVfafdLjMKs81Pv9-20">
          <mxGeometry relative="1" as="geometry" />
        </mxCell>
        <mxCell id="UfAPCVfafdLjMKs81Pv9-5" value="Store Parking Count and Registration" style="rounded=0;whiteSpace=wrap;html=1;fillColor=#dae8fc;strokeColor=#6c8ebf;" vertex="1" parent="1">
          <mxGeometry x="300" y="540" width="120" height="60" as="geometry" />
        </mxCell>
        <mxCell id="UfAPCVfafdLjMKs81Pv9-8" style="edgeStyle=orthogonalEdgeStyle;rounded=0;orthogonalLoop=1;jettySize=auto;html=1;exitX=0.5;exitY=1;exitDx=0;exitDy=0;entryX=0.5;entryY=0;entryDx=0;entryDy=0;" edge="1" parent="1" source="UfAPCVfafdLjMKs81Pv9-6" target="UfAPCVfafdLjMKs81Pv9-7">
          <mxGeometry relative="1" as="geometry" />
        </mxCell>
        <mxCell id="UfAPCVfafdLjMKs81Pv9-6" value="Trigger the alert and keep the gate closed" style="rounded=0;whiteSpace=wrap;html=1;fillColor=#f8cecc;strokeColor=#b85450;" vertex="1" parent="1">
          <mxGeometry x="530" y="390" width="120" height="60" as="geometry" />
        </mxCell>
        <mxCell id="UfAPCVfafdLjMKs81Pv9-7" value="Message the Driver" style="shape=parallelogram;perimeter=parallelogramPerimeter;whiteSpace=wrap;html=1;fixedSize=1;fillColor=#f8cecc;strokeColor=#b85450;" vertex="1" parent="1">
          <mxGeometry x="520" y="520" width="140" height="60" as="geometry" />
        </mxCell>
        <mxCell id="UfAPCVfafdLjMKs81Pv9-16" style="edgeStyle=orthogonalEdgeStyle;rounded=0;orthogonalLoop=1;jettySize=auto;html=1;entryX=0;entryY=0.5;entryDx=0;entryDy=0;" edge="1" parent="1" source="UfAPCVfafdLjMKs81Pv9-15" target="UfAPCVfafdLjMKs81Pv9-3">
          <mxGeometry relative="1" as="geometry" />
        </mxCell>
        <mxCell id="UfAPCVfafdLjMKs81Pv9-15" value="Registration" style="shape=process;whiteSpace=wrap;html=1;backgroundOutline=1;fillColor=#dae8fc;strokeColor=#6c8ebf;" vertex="1" parent="1">
          <mxGeometry x="60" y="290" width="120" height="60" as="geometry" />
        </mxCell>
        <mxCell id="UfAPCVfafdLjMKs81Pv9-18" value="Unregistered or Full" style="text;html=1;align=center;verticalAlign=middle;resizable=0;points=[];autosize=1;strokeColor=none;fillColor=none;" vertex="1" parent="1">
          <mxGeometry x="400" y="380" width="130" height="30" as="geometry" />
        </mxCell>
        <mxCell id="UfAPCVfafdLjMKs81Pv9-19" value="Registered" style="text;html=1;align=center;verticalAlign=middle;resizable=0;points=[];autosize=1;strokeColor=none;fillColor=none;" vertex="1" parent="1">
          <mxGeometry x="370" y="478" width="80" height="30" as="geometry" />
        </mxCell>
        <mxCell id="UfAPCVfafdLjMKs81Pv9-25" style="edgeStyle=orthogonalEdgeStyle;rounded=0;orthogonalLoop=1;jettySize=auto;html=1;entryX=0.5;entryY=0;entryDx=0;entryDy=0;" edge="1" parent="1" source="UfAPCVfafdLjMKs81Pv9-20" target="UfAPCVfafdLjMKs81Pv9-22">
          <mxGeometry relative="1" as="geometry" />
        </mxCell>
        <mxCell id="UfAPCVfafdLjMKs81Pv9-20" value="Display Parking&lt;div&gt;&amp;nbsp;count&lt;/div&gt;" style="shape=parallelogram;perimeter=parallelogramPerimeter;whiteSpace=wrap;html=1;fixedSize=1;fillColor=#fff2cc;strokeColor=#d6b656;" vertex="1" parent="1">
          <mxGeometry x="300" y="690" width="120" height="60" as="geometry" />
        </mxCell>
        <mxCell id="UfAPCVfafdLjMKs81Pv9-24" style="edgeStyle=orthogonalEdgeStyle;rounded=0;orthogonalLoop=1;jettySize=auto;html=1;entryX=0;entryY=0.5;entryDx=0;entryDy=0;" edge="1" parent="1" source="UfAPCVfafdLjMKs81Pv9-22" target="UfAPCVfafdLjMKs81Pv9-23">
          <mxGeometry relative="1" as="geometry" />
        </mxCell>
        <mxCell id="UfAPCVfafdLjMKs81Pv9-22" value="Open Gate" style="shape=parallelogram;perimeter=parallelogramPerimeter;whiteSpace=wrap;html=1;fixedSize=1;fillColor=#fff2cc;strokeColor=#d6b656;" vertex="1" parent="1">
          <mxGeometry x="293" y="795" width="132" height="60" as="geometry" />
        </mxCell>
        <mxCell id="UfAPCVfafdLjMKs81Pv9-23" value="End" style="ellipse;whiteSpace=wrap;html=1;fillColor=#d5e8d4;strokeColor=#82b366;" vertex="1" parent="1">
          <mxGeometry x="490" y="800" width="90" height="50" as="geometry" />
        </mxCell>
      </root>
    </mxGraphModel>
  </diagram>
</mxfile>
